<svg
   version="1.1"
   width="450"
   height="400.00003"
   viewBox="0 0 450 400.00003"
   xmlns="http://www.w3.org/2000/svg">
  <style>
    path {
      fill: #0EA5E9; /* Light mode Pulse Design System Primary */
    }
    @media (prefers-color-scheme: dark) {
      path {
        fill: #38BDF8; /* Dark mode Pulse Design System Primary */
      }
    }
  </style>
  <g>
    <path
       style="stroke-width:1.06142"
       d="m 245.99859,398.687 c -2.01314,-0.68824 -4.53451,-2.43082 -5.60302,-3.87239 -1.06851,-1.44157 -4.41976,-12.05679 -7.44722,-23.58937 -3.02746,-11.53258 -8.13007,-30.87587 -11.33913,-42.98508 -3.20909,-12.10921 -8.72365,-33.57554 -12.2546,-47.70295 -8.69152,-34.77493 -9.78905,-38.79141 -10.60005,-38.79141 -0.38457,0 -2.98927,6.72297 -5.78821,14.93994 -2.79895,8.21696 -8.21932,24.13979 -12.04528,35.38405 -5.73037,16.84118 -7.53283,20.95223 -10.22761,23.32727 l -3.27129,2.88315 -79.230808,-0.0371 c -85.6986614,-0.0401 -82.223823,0.19342 -86.2730714,-5.79983 -3.7982125,-5.62171 -1.74043322,-14.07201 4.2703795,-17.53635 2.8419408,-1.63799 9.1620189,-1.7887 75.0086039,-1.7887 h 71.905166 l 18.03193,-52.68293 c 20.03065,-58.52253 19.99468,-58.44922 28.67786,-58.44922 4.74479,0 9.51665,2.22024 11.529,5.36418 0.69517,1.08607 9.97652,35.82545 20.62521,77.1986 10.6487,41.37315 19.62635,75.93159 19.95034,76.79653 0.88293,2.35715 2.32323,-1.33467 23.51876,-60.28395 9.41309,-26.17984 9.85517,-27.31271 11.7731,-30.16863 4.93252,-7.34492 15.46391,-6.32719 21.21878,2.05053 2.66841,3.88457 4.23445,6.65176 16.65523,29.42862 l 5.86016,10.74627 h 54.77734 c 58.97291,0 58.72244,-0.0218 62.66451,5.46937 2.25902,3.14683 2.12051,11.2352 -0.23913,13.95858 -5.21687,6.02104 -1.81227,5.73405 -68.02355,5.73405 -59.47388,0 -60.92826,-0.0484 -63.62935,-2.1215 -2.58869,-1.98672 -4.17558,-4.44091 -13.19439,-20.40502 -2.32527,-4.11595 -3.75054,-5.73977 -4.1408,-4.71788 -5.04262,13.20138 -11.71661,31.65198 -17.25025,47.68852 -11.15809,32.33683 -19.58457,54.9908 -21.13156,56.81084 -1.56142,1.83703 -7.501,4.55848 -9.73909,4.46235 -0.75774,-0.0326 -3.02482,-0.62229 -5.03796,-1.31052 z M 92.973504,274.61503 c -2.048463,-1.9987 0.377961,-26.20066 4.63777,-46.25765 4.475346,-21.07183 11.020976,-37.30287 29.270646,-72.58173 6.11493,-11.8209 12.68329,-26.09397 14.59635,-31.71793 3.44916,-10.13965 8.78378,-37.241078 8.78645,-44.637699 0.002,-6.742922 5.3124,-25.569862 9.72202,-34.470384 9.69856,-19.575855 29.12501,-36.1328147 49.91391,-42.5411352 10.45892,-3.2240381 33.30119,-3.20837475 42.98185,0.029461 13.89524,4.6474732 22.33749,9.3742892 32.77365,18.3500142 10.36393,8.913563 13.94555,10.060846 36.59683,11.722617 26.3745,1.934937 39.15471,5.90053 38.40866,11.917823 -0.35514,2.864567 -1.37617,3.316487 -21.81545,9.655875 -22.56137,6.997551 -34.99882,16.699776 -40.75618,31.793 -1.51521,3.972031 -1.84077,7.266544 -1.51075,15.284488 0.41867,10.16983 0.45653,10.29156 7.56006,24.29222 3.92661,7.73915 12.3919,23.03514 18.81178,33.99109 10.99227,18.7591 18.85665,34.54061 25.57921,51.32993 7.09171,17.71117 14.27011,56.30624 11.69184,62.86172 -1.00109,2.54548 -16.07543,2.39302 -17.4374,-0.17635 -0.53493,-1.0091 -2.28567,-7.49618 -3.89048,-14.41573 -7.71021,-33.2434 -17.56317,-57.23932 -37.30592,-90.85442 -4.17955,-7.11635 -11.93856,-21.59241 -17.24226,-32.16903 -9.23877,-18.42398 -9.83017,-19.31311 -14.10605,-21.20741 -15.36009,-6.80482 -45.73931,5.70577 -66.73627,27.48292 -12.86748,13.34559 -18.35298,21.28949 -28.85467,41.78616 -8.09241,15.79435 -11.46546,23.97039 -18.16618,44.03349 -4.52573,13.55079 -9.35434,29.59156 -10.73028,35.64617 l -2.50169,11.00837 -24.77087,0.28095 c -13.62397,0.15452 -25.101934,-0.042 -25.506576,-0.43684 z M 255.6515,49.966216 c 6.83376,-6.667563 1.70301,-17.903725 -8.17536,-17.903725 -3.42802,0 -8.91288,4.986635 -9.5445,8.677533 -1.7328,10.12567 10.35003,16.416831 17.71986,9.226192 z" />
  </g>
</svg>
